<svg class="svg-icon" style="width: 1em;height: 1em;vertical-align: middle;fill: currentColor;overflow: hidden;" viewBox="0 0 1024 1024" version="1.1" xmlns="http://www.w3.org/2000/svg"><path d="M405.942857 147.017143l11.702857 38.765714C438.857143 257.462857 525.165714 285.257143 584.411429 239.908571l32.182857-24.868571-13.897143 38.034286C577.828571 323.291429 631.222857 397.165714 705.828571 394.971429l40.96-1.462858-33.645714 22.674286c-61.44 42.422857-61.44 133.12 0 175.542857l33.645714 22.674286-40.96-1.462857c-74.605714-2.194286-128 71.68-103.131428 141.897143l13.897143 38.034285-32.182857-24.868571c-59.245714-45.348571-145.554286-17.554286-166.765715 54.125714l-11.702857 38.765715-11.702857-38.765715c-21.211429-71.68-107.52-99.474286-166.765714-54.125714l-32.182857 24.868571 13.897142-38.034285c24.868571-70.217143-28.525714-144.091429-103.131428-141.897143l-40.96 1.462857 33.645714-22.674286c61.44-42.422857 61.44-133.12 0-175.542857L65.097143 394.971429l40.96 1.462857c74.605714 2.194286 128-71.68 103.131428-141.897143l-13.897142-38.034286 32.182857 24.868572c59.245714 45.348571 145.554286 17.554286 166.765714-54.125715l11.702857-40.228571z" fill="#FFC931" opacity=".5" /><path d="M405.942857 505.417143m-236.982857 0a236.982857 236.982857 0 1 0 473.965714 0 236.982857 236.982857 0 1 0-473.965714 0Z" fill="#FFC931" /><path d="M732.16 423.497143c-5.12 0-9.508571 0-14.628571 0.731428-32.182857-85.577143-114.834286-147.017143-212.114286-147.017142-125.074286 0-226.742857 101.668571-226.742857 226.742857 0 8.777143 0.731429 17.554286 1.462857 26.331428-12.434286-2.925714-24.868571-4.388571-38.034286-4.388571-97.28 0-175.542857 78.262857-175.542857 175.542857s78.262857 175.542857 175.542857 175.542857h490.057143c125.074286 0 226.742857-101.668571 226.742857-226.742857s-100.937143-226.742857-226.742857-226.742857z" fill="#CFF6FF" /></svg>