<svg class="svg-icon" style="width: 1em;height: 1em;vertical-align: middle;fill: currentColor;overflow: hidden;" viewBox="0 0 1024 1024" version="1.1" xmlns="http://www.w3.org/2000/svg"><path d="M731.428571 296.228571c-5.12 0-9.508571 0-14.628571 0.731429-32.182857-85.577143-114.834286-147.017143-212.114286-147.017143-125.074286 0-226.742857 101.668571-226.742857 226.742857 0 8.777143 0.731429 17.554286 1.462857 26.331429-12.434286-2.925714-24.868571-4.388571-38.034285-4.388572-97.28 0-175.542857 78.262857-175.542858 175.542858s78.262857 175.542857 175.542858 175.542857h490.057142c125.074286 0 226.742857-101.668571 226.742858-226.742857s-101.668571-226.742857-226.742858-226.742858zM482.742857 837.485714c0 20.48 13.165714 36.571429 29.257143 36.571429s29.257143-16.091429 29.257143-36.571429-29.257143-51.2-29.257143-51.2-29.257143 30.72-29.257143 51.2zM380.342857 837.485714c0 20.48 13.165714 36.571429 29.257143 36.571429s29.257143-16.091429 29.257143-36.571429-29.257143-51.2-29.257143-51.2-29.257143 30.72-29.257143 51.2zM585.142857 837.485714c0 20.48 13.165714 36.571429 29.257143 36.571429s29.257143-16.091429 29.257143-36.571429-29.257143-51.2-29.257143-51.2-29.257143 30.72-29.257143 51.2z" fill="#CFF6FF" /></svg>